<svg width="215" height="32" viewBox="0 0 215 32" fill="none" xmlns="http://www.w3.org/2000/svg">
<path d="M45.792 10.436V12.47H42.444V23H39.924V12.47H36.576V10.436H45.792ZM53.2467 12.884C54.0027 12.884 54.6747 13.052 55.2627 13.388C55.8507 13.712 56.3067 14.198 56.6307 14.846C56.9667 15.482 57.1347 16.25 57.1347 17.15V23H54.6147V17.492C54.6147 16.7 54.4167 16.094 54.0207 15.674C53.6247 15.242 53.0847 15.026 52.4007 15.026C51.7047 15.026 51.1527 15.242 50.7447 15.674C50.3487 16.094 50.1507 16.7 50.1507 17.492V23H47.6307V9.68H50.1507V14.27C50.4747 13.838 50.9067 13.502 51.4467 13.262C51.9867 13.01 52.5867 12.884 53.2467 12.884ZM68.8011 17.798C68.8011 18.158 68.7771 18.482 68.7291 18.77H61.4391C61.4991 19.49 61.7511 20.054 62.1951 20.462C62.6391 20.87 63.1851 21.074 63.8331 21.074C64.7691 21.074 65.4351 20.672 65.8311 19.868H68.5491C68.2611 20.828 67.7091 21.62 66.8931 22.244C66.0771 22.856 65.0751 23.162 63.8871 23.162C62.9271 23.162 62.0631 22.952 61.2951 22.532C60.5391 22.1 59.9451 21.494 59.5131 20.714C59.0931 19.934 58.8831 19.034 58.8831 18.014C58.8831 16.982 59.0931 16.076 59.5131 15.296C59.9331 14.516 60.5211 13.916 61.2771 13.496C62.0331 13.076 62.9031 12.866 63.8871 12.866C64.8351 12.866 65.6811 13.07 66.4251 13.478C67.1811 13.886 67.7631 14.468 68.1711 15.224C68.5911 15.968 68.8011 16.826 68.8011 17.798ZM66.1911 17.078C66.1791 16.43 65.9451 15.914 65.4891 15.53C65.0331 15.134 64.4751 14.936 63.8151 14.936C63.1911 14.936 62.6631 15.128 62.2311 15.512C61.8111 15.884 61.5531 16.406 61.4571 17.078H66.1911Z" fill="white"/>
<path d="M77.4495 10.436V23H74.9295V10.436H77.4495ZM85.4653 12.884C86.6533 12.884 87.6133 13.262 88.3453 14.018C89.0773 14.762 89.4433 15.806 89.4433 17.15V23H86.9233V17.492C86.9233 16.7 86.7253 16.094 86.3293 15.674C85.9333 15.242 85.3933 15.026 84.7093 15.026C84.0133 15.026 83.4613 15.242 83.0533 15.674C82.6573 16.094 82.4593 16.7 82.4593 17.492V23H79.9393V13.028H82.4593V14.27C82.7953 13.838 83.2213 13.502 83.7373 13.262C84.2653 13.01 84.8413 12.884 85.4653 12.884ZM96.4117 15.098H94.6657V23H92.1097V15.098H90.9757V13.028H92.1097V12.524C92.1097 11.3 92.4577 10.4 93.1537 9.824C93.8497 9.248 94.8997 8.978 96.3037 9.014V11.138C95.6917 11.126 95.2657 11.228 95.0257 11.444C94.7857 11.66 94.6657 12.05 94.6657 12.614V13.028H96.4117V15.098ZM100.565 9.68V23H98.0447V9.68H100.565ZM112.469 13.028V23H109.931V21.74C109.607 22.172 109.181 22.514 108.653 22.766C108.137 23.006 107.573 23.126 106.961 23.126C106.181 23.126 105.491 22.964 104.891 22.64C104.291 22.304 103.817 21.818 103.469 21.182C103.133 20.534 102.965 19.766 102.965 18.878V13.028H105.485V18.518C105.485 19.31 105.683 19.922 106.079 20.354C106.475 20.774 107.015 20.984 107.699 20.984C108.395 20.984 108.941 20.774 109.337 20.354C109.733 19.922 109.931 19.31 109.931 18.518V13.028H112.469ZM124.225 17.798C124.225 18.158 124.201 18.482 124.153 18.77H116.863C116.923 19.49 117.175 20.054 117.619 20.462C118.063 20.87 118.609 21.074 119.257 21.074C120.193 21.074 120.859 20.672 121.255 19.868H123.973C123.685 20.828 123.133 21.62 122.317 22.244C121.501 22.856 120.499 23.162 119.311 23.162C118.351 23.162 117.487 22.952 116.719 22.532C115.963 22.1 115.369 21.494 114.937 20.714C114.517 19.934 114.307 19.034 114.307 18.014C114.307 16.982 114.517 16.076 114.937 15.296C115.357 14.516 115.945 13.916 116.701 13.496C117.457 13.076 118.327 12.866 119.311 12.866C120.259 12.866 121.105 13.07 121.849 13.478C122.605 13.886 123.187 14.468 123.595 15.224C124.015 15.968 124.225 16.826 124.225 17.798ZM121.615 17.078C121.603 16.43 121.369 15.914 120.913 15.53C120.457 15.134 119.899 14.936 119.239 14.936C118.615 14.936 118.087 15.128 117.655 15.512C117.235 15.884 116.977 16.406 116.881 17.078H121.615ZM131.59 12.884C132.778 12.884 133.738 13.262 134.47 14.018C135.202 14.762 135.568 15.806 135.568 17.15V23H133.048V17.492C133.048 16.7 132.85 16.094 132.454 15.674C132.058 15.242 131.518 15.026 130.834 15.026C130.138 15.026 129.586 15.242 129.178 15.674C128.782 16.094 128.584 16.7 128.584 17.492V23H126.064V13.028H128.584V14.27C128.92 13.838 129.346 13.502 129.862 13.262C130.39 13.01 130.966 12.884 131.59 12.884ZM137.317 18.014C137.317 16.982 137.527 16.082 137.947 15.314C138.367 14.534 138.949 13.934 139.693 13.514C140.437 13.082 141.289 12.866 142.249 12.866C143.485 12.866 144.505 13.178 145.309 13.802C146.125 14.414 146.671 15.278 146.947 16.394H144.229C144.085 15.962 143.839 15.626 143.491 15.386C143.155 15.134 142.735 15.008 142.231 15.008C141.511 15.008 140.941 15.272 140.521 15.8C140.101 16.316 139.891 17.054 139.891 18.014C139.891 18.962 140.101 19.7 140.521 20.228C140.941 20.744 141.511 21.002 142.231 21.002C143.251 21.002 143.917 20.546 144.229 19.634H146.947C146.671 20.714 146.125 21.572 145.309 22.208C144.493 22.844 143.473 23.162 142.249 23.162C141.289 23.162 140.437 22.952 139.693 22.532C138.949 22.1 138.367 21.5 137.947 20.732C137.527 19.952 137.317 19.046 137.317 18.014ZM158.063 17.798C158.063 18.158 158.039 18.482 157.991 18.77H150.701C150.761 19.49 151.013 20.054 151.457 20.462C151.901 20.87 152.447 21.074 153.095 21.074C154.031 21.074 154.697 20.672 155.093 19.868H157.811C157.523 20.828 156.971 21.62 156.155 22.244C155.339 22.856 154.337 23.162 153.149 23.162C152.189 23.162 151.325 22.952 150.557 22.532C149.801 22.1 149.207 21.494 148.775 20.714C148.355 19.934 148.145 19.034 148.145 18.014C148.145 16.982 148.355 16.076 148.775 15.296C149.195 14.516 149.783 13.916 150.539 13.496C151.295 13.076 152.165 12.866 153.149 12.866C154.097 12.866 154.943 13.07 155.687 13.478C156.443 13.886 157.025 14.468 157.433 15.224C157.853 15.968 158.063 16.826 158.063 17.798ZM155.453 17.078C155.441 16.43 155.207 15.914 154.751 15.53C154.295 15.134 153.737 14.936 153.077 14.936C152.453 14.936 151.925 15.128 151.493 15.512C151.073 15.884 150.815 16.406 150.719 17.078H155.453ZM162.422 14.576C162.746 14.048 163.166 13.634 163.682 13.334C164.21 13.034 164.81 12.884 165.482 12.884V15.53H164.816C164.024 15.53 163.424 15.716 163.016 16.088C162.62 16.46 162.422 17.108 162.422 18.032V23H159.902V13.028H162.422V14.576ZM170.857 16.7C170.857 15.464 171.133 14.36 171.685 13.388C172.249 12.404 173.011 11.642 173.971 11.102C174.943 10.55 176.029 10.274 177.229 10.274C178.633 10.274 179.863 10.634 180.919 11.354C181.975 12.074 182.713 13.07 183.133 14.342H180.235C179.947 13.742 179.539 13.292 179.011 12.992C178.495 12.692 177.895 12.542 177.211 12.542C176.479 12.542 175.825 12.716 175.249 13.064C174.685 13.4 174.241 13.88 173.917 14.504C173.605 15.128 173.449 15.86 173.449 16.7C173.449 17.528 173.605 18.26 173.917 18.896C174.241 19.52 174.685 20.006 175.249 20.354C175.825 20.69 176.479 20.858 177.211 20.858C177.895 20.858 178.495 20.708 179.011 20.408C179.539 20.096 179.947 19.64 180.235 19.04H183.133C182.713 20.324 181.975 21.326 180.919 22.046C179.875 22.754 178.645 23.108 177.229 23.108C176.029 23.108 174.943 22.838 173.971 22.298C173.011 21.746 172.249 20.984 171.685 20.012C171.133 19.04 170.857 17.936 170.857 16.7ZM184.637 17.978C184.637 16.97 184.835 16.076 185.231 15.296C185.639 14.516 186.185 13.916 186.869 13.496C187.565 13.076 188.339 12.866 189.191 12.866C189.935 12.866 190.583 13.016 191.135 13.316C191.699 13.616 192.149 13.994 192.485 14.45V13.028H195.023V23H192.485V21.542C192.161 22.01 191.711 22.4 191.135 22.712C190.571 23.012 189.917 23.162 189.173 23.162C188.333 23.162 187.565 22.946 186.869 22.514C186.185 22.082 185.639 21.476 185.231 20.696C184.835 19.904 184.637 18.998 184.637 17.978ZM192.485 18.014C192.485 17.402 192.365 16.88 192.125 16.448C191.885 16.004 191.561 15.668 191.153 15.44C190.745 15.2 190.307 15.08 189.839 15.08C189.371 15.08 188.939 15.194 188.543 15.422C188.147 15.65 187.823 15.986 187.571 16.43C187.331 16.862 187.211 17.378 187.211 17.978C187.211 18.578 187.331 19.106 187.571 19.562C187.823 20.006 188.147 20.348 188.543 20.588C188.951 20.828 189.383 20.948 189.839 20.948C190.307 20.948 190.745 20.834 191.153 20.606C191.561 20.366 191.885 20.03 192.125 19.598C192.365 19.154 192.485 18.626 192.485 18.014ZM200.004 14.576C200.328 14.048 200.748 13.634 201.264 13.334C201.792 13.034 202.392 12.884 203.064 12.884V15.53H202.398C201.606 15.53 201.006 15.716 200.598 16.088C200.202 16.46 200.004 17.108 200.004 18.032V23H197.484V13.028H200.004V14.576ZM204.114 17.978C204.114 16.97 204.312 16.076 204.708 15.296C205.116 14.516 205.668 13.916 206.364 13.496C207.06 13.076 207.834 12.866 208.686 12.866C209.334 12.866 209.952 13.01 210.54 13.298C211.128 13.574 211.596 13.946 211.944 14.414V9.68H214.5V23H211.944V21.524C211.632 22.016 211.194 22.412 210.63 22.712C210.066 23.012 209.412 23.162 208.668 23.162C207.828 23.162 207.06 22.946 206.364 22.514C205.668 22.082 205.116 21.476 204.708 20.696C204.312 19.904 204.114 18.998 204.114 17.978ZM211.962 18.014C211.962 17.402 211.842 16.88 211.602 16.448C211.362 16.004 211.038 15.668 210.63 15.44C210.222 15.2 209.784 15.08 209.316 15.08C208.848 15.08 208.416 15.194 208.02 15.422C207.624 15.65 207.3 15.986 207.048 16.43C206.808 16.862 206.688 17.378 206.688 17.978C206.688 18.578 206.808 19.106 207.048 19.562C207.3 20.006 207.624 20.348 208.02 20.588C208.428 20.828 208.86 20.948 209.316 20.948C209.784 20.948 210.222 20.834 210.63 20.606C211.038 20.366 211.362 20.03 211.602 19.598C211.842 19.154 211.962 18.626 211.962 18.014Z" fill="#5CE1E6"/>
<path d="M16 0C12.8355 -3.77363e-08 9.74206 0.938383 7.11088 2.69649C4.47969 4.45459 2.42893 6.95345 1.21793 9.87706C0.00692588 12.8007 -0.309928 16.0177 0.307435 19.1214C0.924798 22.2251 2.44865 25.0761 4.68629 27.3137C6.92393 29.5513 9.77485 31.0752 12.8786 31.6926C15.9822 32.3099 19.1993 31.9931 22.1229 30.7821C25.0465 29.5711 27.5454 27.5203 29.3035 24.8891C31.0616 22.2579 32 19.1645 32 16L24 16C24 17.5823 23.5308 19.129 22.6518 20.4446C21.7727 21.7602 20.5233 22.7855 19.0615 23.391C17.5997 23.9965 15.9911 24.155 14.4393 23.8463C12.8874 23.5376 11.462 22.7757 10.3431 21.6569C9.22432 20.538 8.4624 19.1126 8.15372 17.5607C7.84504 16.0089 8.00346 14.4003 8.60896 12.9385C9.21447 11.4767 10.2398 10.2273 11.5554 9.34824C12.871 8.46919 14.4177 8 16 8L16 0Z" fill="white"/>
<path d="M16 0C13.8989 -2.5056e-08 11.8183 0.413852 9.87706 1.21793C7.93586 2.022 6.17203 3.20055 4.68629 4.68629C3.20055 6.17203 2.022 7.93586 1.21793 9.87707C0.413852 11.8183 -3.17265e-07 13.8989 0 16L8 16C8 14.9494 8.20693 13.9091 8.60896 12.9385C9.011 11.9679 9.60028 11.086 10.3431 10.3431C11.086 9.60028 11.9679 9.011 12.9385 8.60896C13.9091 8.20693 14.9494 8 16 8L16 0Z" fill="#5CE1E6"/>
<circle cx="16" cy="16" r="5" fill="#5CE1E6"/>
<path d="M21 16C21 15.3434 20.8707 14.6932 20.6194 14.0866C20.3681 13.48 19.9998 12.9288 19.5355 12.4645C19.0712 12.0002 18.52 11.6319 17.9134 11.3806C17.3068 11.1293 16.6566 11 16 11C15.3434 11 14.6932 11.1293 14.0866 11.3806C13.48 11.6319 12.9288 12.0002 12.4645 12.4645C12.0002 12.9288 11.6319 13.48 11.3806 14.0866C11.1293 14.6932 11 15.3434 11 16L16 16H21Z" fill="white"/>
</svg>
